<svg width="247" height="19" viewBox="0 0 247 19" fill="none" xmlns="http://www.w3.org/2000/svg">
<path d="M2.98 14H0.7V-9.53674e-07H12.46V14H10.18V2.1H2.98V14ZM16.1819 12.92C15.1685 12.0267 14.6619 10.7867 14.6619 9.2C14.6619 7.61333 15.1685 6.37333 16.1819 5.48C17.2085 4.58667 18.4352 4.14 19.8619 4.14C21.3019 4.14 22.5285 4.58667 23.5419 5.48C24.5552 6.37333 25.0619 7.61333 25.0619 9.2C25.0619 10.7867 24.5552 12.0267 23.5419 12.92C22.5285 13.8133 21.3019 14.26 19.8619 14.26C18.4352 14.26 17.2085 13.8133 16.1819 12.92ZM22.0419 11.46C22.6019 10.8867 22.8819 10.1333 22.8819 9.2C22.8819 8.26667 22.6019 7.52 22.0419 6.96C21.4819 6.38667 20.7552 6.1 19.8619 6.1C18.9552 6.1 18.2219 6.38667 17.6619 6.96C17.1019 7.52 16.8219 8.26667 16.8219 9.2C16.8219 10.1333 17.1019 10.8867 17.6619 11.46C18.2219 12.02 18.9552 12.3 19.8619 12.3C20.7552 12.3 21.4819 12.02 22.0419 11.46ZM26.5369 9.28C26.5369 7.61333 27.0635 6.34 28.1169 5.46C29.1702 4.58 30.4102 4.14 31.8369 4.14C32.9835 4.14 33.9702 4.38667 34.7969 4.88V6.84C34.0502 6.30667 33.1635 6.04 32.1369 6.04C31.1902 6.04 30.3835 6.30667 29.7169 6.84C29.0502 7.36 28.7169 8.14667 28.7169 9.2C28.7169 10.2267 29.0435 11.0133 29.6969 11.56C30.3635 12.0933 31.1635 12.36 32.0969 12.36C33.1102 12.36 34.0435 12.1133 34.8969 11.62V13.6C33.9769 14.04 32.9169 14.26 31.7169 14.26C30.3169 14.26 29.1035 13.8333 28.0769 12.98C27.0502 12.1133 26.5369 10.88 26.5369 9.28ZM39.0992 14H37.0392V4.4H39.1992L42.4592 9.46L45.7392 4.4H47.8992V14H45.8392V7.5L43.0992 11.7H41.8192L39.0992 7.5V14ZM51.4944 12.92C50.481 12.0267 49.9744 10.7867 49.9744 9.2C49.9744 7.61333 50.481 6.37333 51.4944 5.48C52.521 4.58667 53.7477 4.14 55.1744 4.14C56.6144 4.14 57.841 4.58667 58.8544 5.48C59.8677 6.37333 60.3744 7.61333 60.3744 9.2C60.3744 10.7867 59.8677 12.0267 58.8544 12.92C57.841 13.8133 56.6144 14.26 55.1744 14.26C53.7477 14.26 52.521 13.8133 51.4944 12.92ZM57.3544 11.46C57.9144 10.8867 58.1944 10.1333 58.1944 9.2C58.1944 8.26667 57.9144 7.52 57.3544 6.96C56.7944 6.38667 56.0677 6.1 55.1744 6.1C54.2677 6.1 53.5344 6.38667 52.9744 6.96C52.4144 7.52 52.1344 8.26667 52.1344 9.2C52.1344 10.1333 52.4144 10.8867 52.9744 11.46C53.5344 12.02 54.2677 12.3 55.1744 12.3C56.0677 12.3 56.7944 12.02 57.3544 11.46ZM66.6555 14H64.5155V6.28H61.1955V4.4H69.9555V6.28H66.6555V14ZM73.5291 5.9C74.5024 4.72667 75.7357 4.14 77.2291 4.14C78.6424 4.14 79.7891 4.63333 80.6691 5.62C81.5491 6.59333 81.9891 7.78667 81.9891 9.2C81.9891 10.6133 81.5491 11.8133 80.6691 12.8C79.7891 13.7733 78.6424 14.26 77.2291 14.26C75.7891 14.26 74.6357 13.76 73.7691 12.76V18.4H71.6291V4.4H73.5291V5.9ZM78.9691 11.5C79.5291 10.9 79.8091 10.1333 79.8091 9.2C79.8091 8.26667 79.5291 7.50667 78.9691 6.92C78.4091 6.32 77.6957 6.02 76.8291 6.02C76.1224 6.02 75.4957 6.21333 74.9491 6.6C74.4157 6.98667 74.0224 7.46 73.7691 8.02V10.36C74.0224 10.9333 74.4157 11.4133 74.9491 11.8C75.4957 12.1867 76.1224 12.38 76.8291 12.38C77.6957 12.38 78.4091 12.0867 78.9691 11.5ZM83.4705 9.2C83.4705 8.37333 83.6171 7.62667 83.9105 6.96C84.2038 6.28 84.5905 5.74667 85.0705 5.36C85.5505 4.96 86.0705 4.66 86.6305 4.46C87.1905 4.24667 87.7571 4.14 88.3305 4.14C89.0638 4.14 89.7238 4.25333 90.3105 4.48C90.9105 4.70667 91.3905 5.01333 91.7505 5.4C92.1105 5.78667 92.4038 6.23333 92.6305 6.74C92.8571 7.24667 92.9771 7.78 92.9905 8.34C93.0038 8.88667 92.9571 9.44 92.8505 10H85.6305C85.7371 10.8133 86.1371 11.4267 86.8305 11.84C87.5238 12.24 88.3505 12.44 89.3105 12.44C90.4038 12.44 91.4171 12.2133 92.3505 11.76V13.6C91.4305 14.04 90.2838 14.26 88.9105 14.26C87.3505 14.26 86.0505 13.82 85.0105 12.94C83.9838 12.06 83.4705 10.8133 83.4705 9.2ZM90.9305 8.4C91.0105 7.85333 90.8438 7.30667 90.4305 6.76C90.0305 6.2 89.3638 5.92 88.4305 5.92C87.6705 5.92 87.0171 6.14 86.4705 6.58C85.9371 7.02 85.6505 7.62667 85.6105 8.4H90.9305ZM99.2922 14H97.1522V6.28H93.8322V4.4H102.592V6.28H99.2922V14ZM109.026 14H104.266V4.4H106.406V7.6H109.026C110.199 7.6 111.126 7.9 111.806 8.5C112.486 9.1 112.826 9.86667 112.826 10.8C112.826 11.7333 112.486 12.5 111.806 13.1C111.126 13.7 110.199 14 109.026 14ZM106.406 9.28V12.3H108.606C109.246 12.3 109.746 12.1733 110.106 11.92C110.466 11.6533 110.646 11.28 110.646 10.8C110.646 10.3067 110.466 9.93333 110.106 9.68C109.746 9.41333 109.246 9.28 108.606 9.28H106.406ZM125.062 14H119.422V4.4H124.902C125.849 4.4 126.589 4.64 127.122 5.12C127.669 5.58667 127.942 6.2 127.942 6.96C127.942 8.01333 127.489 8.74 126.582 9.14C127.062 9.28667 127.455 9.55333 127.762 9.94C128.069 10.3267 128.222 10.8 128.222 11.36C128.222 12.1467 127.955 12.7867 127.422 13.28C126.902 13.76 126.115 14 125.062 14ZM121.562 9.92V12.38H124.542C125.555 12.38 126.062 11.9733 126.062 11.16C126.062 10.3333 125.569 9.92 124.582 9.92H121.562ZM121.562 6.02V8.4H124.422C125.329 8.4 125.782 8.01333 125.782 7.24C125.782 6.81333 125.649 6.50667 125.382 6.32C125.129 6.12 124.809 6.02 124.422 6.02H121.562ZM129.779 9.28C129.779 7.61333 130.306 6.34 131.359 5.46C132.412 4.58 133.652 4.14 135.079 4.14C136.226 4.14 137.212 4.38667 138.039 4.88V6.84C137.292 6.30667 136.406 6.04 135.379 6.04C134.432 6.04 133.626 6.30667 132.959 6.84C132.292 7.36 131.959 8.14667 131.959 9.2C131.959 10.2267 132.286 11.0133 132.939 11.56C133.606 12.0933 134.406 12.36 135.339 12.36C136.352 12.36 137.286 12.1133 138.139 11.62V13.6C137.219 14.04 136.159 14.26 134.959 14.26C133.559 14.26 132.346 13.8333 131.319 12.98C130.292 12.1133 129.779 10.88 129.779 9.28ZM139.525 9.2C139.525 8.37333 139.672 7.62667 139.965 6.96C140.258 6.28 140.645 5.74667 141.125 5.36C141.605 4.96 142.125 4.66 142.685 4.46C143.245 4.24667 143.812 4.14 144.385 4.14C145.118 4.14 145.778 4.25333 146.365 4.48C146.965 4.70667 147.445 5.01333 147.805 5.4C148.165 5.78667 148.458 6.23333 148.685 6.74C148.912 7.24667 149.032 7.78 149.045 8.34C149.058 8.88667 149.012 9.44 148.905 10H141.685C141.792 10.8133 142.192 11.4267 142.885 11.84C143.578 12.24 144.405 12.44 145.365 12.44C146.458 12.44 147.472 12.2133 148.405 11.76V13.6C147.485 14.04 146.338 14.26 144.965 14.26C143.405 14.26 142.105 13.82 141.065 12.94C140.038 12.06 139.525 10.8133 139.525 9.2ZM146.985 8.4C147.065 7.85333 146.898 7.30667 146.485 6.76C146.085 6.2 145.418 5.92 144.485 5.92C143.725 5.92 143.072 6.14 142.525 6.58C141.992 7.02 141.705 7.62667 141.665 8.4H146.985ZM161.41 14H155.77V4.4H161.25C162.196 4.4 162.936 4.64 163.47 5.12C164.016 5.58667 164.29 6.2 164.29 6.96C164.29 8.01333 163.836 8.74 162.93 9.14C163.41 9.28667 163.803 9.55333 164.11 9.94C164.416 10.3267 164.57 10.8 164.57 11.36C164.57 12.1467 164.303 12.7867 163.77 13.28C163.25 13.76 162.463 14 161.41 14ZM157.91 9.92V12.38H160.89C161.903 12.38 162.41 11.9733 162.41 11.16C162.41 10.3333 161.916 9.92 160.93 9.92H157.91ZM157.91 6.02V8.4H160.77C161.676 8.4 162.13 8.01333 162.13 7.24C162.13 6.81333 161.996 6.50667 161.73 6.32C161.476 6.12 161.156 6.02 160.77 6.02H157.91ZM174.907 11.78C174.907 12.2467 175.14 12.48 175.607 12.48C175.767 12.48 175.98 12.44 176.247 12.36V13.9C175.847 14.06 175.393 14.14 174.887 14.14C173.927 14.14 173.287 13.7667 172.967 13.02C171.94 13.8467 170.733 14.26 169.347 14.26C168.413 14.26 167.62 14.0067 166.967 13.5C166.313 12.98 165.987 12.2533 165.987 11.32C165.987 10.2 166.407 9.38667 167.247 8.88C168.087 8.36 169.093 8.1 170.267 8.1C171.04 8.1 171.873 8.19333 172.767 8.38V8.04C172.767 7.42667 172.547 6.93333 172.107 6.56C171.667 6.18667 171.047 6 170.247 6C169.06 6 167.907 6.24667 166.787 6.74V4.78C168.04 4.35333 169.267 4.14 170.467 4.14C171.867 4.14 172.953 4.48667 173.727 5.18C174.513 5.87333 174.907 6.92667 174.907 8.34V11.78ZM170.687 9.6C169.98 9.6 169.387 9.72667 168.907 9.98C168.427 10.2333 168.187 10.6333 168.187 11.18C168.187 11.6333 168.36 11.9867 168.707 12.24C169.053 12.48 169.48 12.6 169.987 12.6C171.08 12.6 172.007 12.22 172.767 11.46V9.84C171.993 9.68 171.3 9.6 170.687 9.6ZM179.76 5.9C180.733 4.72667 181.966 4.14 183.46 4.14C184.873 4.14 186.02 4.63333 186.9 5.62C187.78 6.59333 188.22 7.78667 188.22 9.2C188.22 10.6133 187.78 11.8133 186.9 12.8C186.02 13.7733 184.873 14.26 183.46 14.26C182.02 14.26 180.866 13.76 180 12.76V18.4H177.86V4.4H179.76V5.9ZM185.2 11.5C185.76 10.9 186.04 10.1333 186.04 9.2C186.04 8.26667 185.76 7.50667 185.2 6.92C184.64 6.32 183.926 6.02 183.06 6.02C182.353 6.02 181.726 6.21333 181.18 6.6C180.646 6.98667 180.253 7.46 180 8.02V10.36C180.253 10.9333 180.646 11.4133 181.18 11.8C181.726 12.1867 182.353 12.38 183.06 12.38C183.926 12.38 184.64 12.0867 185.2 11.5ZM192.141 14H190.301V4.4H192.441V10.68L197.581 4.4H199.421V14H197.281V7.72L192.141 14ZM210.278 11.78C210.278 12.2467 210.511 12.48 210.978 12.48C211.138 12.48 211.351 12.44 211.618 12.36V13.9C211.218 14.06 210.764 14.14 210.258 14.14C209.298 14.14 208.658 13.7667 208.338 13.02C207.311 13.8467 206.104 14.26 204.718 14.26C203.784 14.26 202.991 14.0067 202.338 13.5C201.684 12.98 201.358 12.2533 201.358 11.32C201.358 10.2 201.778 9.38667 202.618 8.88C203.458 8.36 204.464 8.1 205.638 8.1C206.411 8.1 207.244 8.19333 208.138 8.38V8.04C208.138 7.42667 207.918 6.93333 207.478 6.56C207.038 6.18667 206.418 6 205.618 6C204.431 6 203.278 6.24667 202.158 6.74V4.78C203.411 4.35333 204.638 4.14 205.838 4.14C207.238 4.14 208.324 4.48667 209.098 5.18C209.884 5.87333 210.278 6.92667 210.278 8.34V11.78ZM206.058 9.6C205.351 9.6 204.758 9.72667 204.278 9.98C203.798 10.2333 203.558 10.6333 203.558 11.18C203.558 11.6333 203.731 11.9867 204.078 12.24C204.424 12.48 204.851 12.6 205.358 12.6C206.451 12.6 207.378 12.22 208.138 11.46V9.84C207.364 9.68 206.671 9.6 206.058 9.6ZM215.371 14H213.231V4.4H215.371V8.26H220.171V4.4H222.311V14H220.171V10.14H215.371V14ZM229.448 14H227.308V6.28H223.988V4.4H232.748V6.28H229.448V14ZM239.182 14H234.422V4.4H236.562V7.6H239.182C240.355 7.6 241.282 7.9 241.962 8.5C242.642 9.1 242.982 9.86667 242.982 10.8C242.982 11.7333 242.642 12.5 241.962 13.1C241.282 13.7 240.355 14 239.182 14ZM236.562 9.28V12.3H238.762C239.402 12.3 239.902 12.1733 240.262 11.92C240.622 11.6533 240.802 11.28 240.802 10.8C240.802 10.3067 240.622 9.93333 240.262 9.68C239.902 9.41333 239.402 9.28 238.762 9.28H236.562ZM246.842 14H244.702V4.4H246.842V14Z" fill="white"/>
</svg>
