<svg width="86" height="16" viewBox="0 0 86 16" fill="none" xmlns="http://www.w3.org/2000/svg">
<path d="M1.816 12H0.472V0.799999H9.608V12H8.264V2.08H1.816V12ZM12.7783 11.12C11.9676 10.3947 11.5623 9.408 11.5623 8.16C11.5623 6.912 11.9676 5.93067 12.7783 5.216C13.5889 4.49067 14.5489 4.128 15.6583 4.128C16.7783 4.128 17.7383 4.49067 18.5383 5.216C19.3489 5.93067 19.7543 6.912 19.7543 8.16C19.7543 9.408 19.3489 10.3947 18.5383 11.12C17.7383 11.8347 16.7783 12.192 15.6583 12.192C14.5489 12.192 13.5889 11.8347 12.7783 11.12ZM17.6743 10.224C18.2076 9.712 18.4743 9.024 18.4743 8.16C18.4743 7.296 18.2076 6.61333 17.6743 6.112C17.1409 5.6 16.4689 5.344 15.6583 5.344C14.8476 5.344 14.1756 5.6 13.6423 6.112C13.1089 6.61333 12.8423 7.296 12.8423 8.16C12.8423 9.024 13.1089 9.712 13.6423 10.224C14.1756 10.7253 14.8476 10.976 15.6583 10.976C16.4689 10.976 17.1409 10.7253 17.6743 10.224ZM21.8671 14.08H20.6191V10.848H21.6431C22.5498 9.248 22.9871 7.072 22.9551 4.32H28.6831V10.848H29.8031V14.08H28.5551V12H21.8671V14.08ZM24.1871 5.472C24.1338 7.57333 23.7498 9.36533 23.0351 10.848H27.4031V5.472H24.1871ZM32.6641 5.6C33.5281 4.61867 34.5628 4.128 35.7681 4.128C36.8668 4.128 37.7788 4.512 38.5041 5.28C39.2401 6.048 39.6081 7.008 39.6081 8.16C39.6081 9.312 39.2401 10.272 38.5041 11.04C37.7788 11.808 36.8668 12.192 35.7681 12.192C34.5521 12.192 33.5601 11.744 32.7921 10.848V15.52H31.5121V4.32H32.6641V5.6ZM37.5441 10.224C38.0668 9.70133 38.3281 9.01333 38.3281 8.16C38.3281 7.30667 38.0668 6.61867 37.5441 6.096C37.0321 5.57333 36.3921 5.312 35.6241 5.312C34.9735 5.312 34.3975 5.49333 33.8961 5.856C33.3948 6.21867 33.0268 6.66667 32.7921 7.2V9.12C33.0268 9.65333 33.3948 10.1013 33.8961 10.464C34.3975 10.8267 34.9735 11.008 35.6241 11.008C36.3921 11.008 37.0321 10.7467 37.5441 10.224ZM42.1376 11.12C41.327 10.3947 40.9216 9.408 40.9216 8.16C40.9216 6.912 41.327 5.93067 42.1376 5.216C42.9483 4.49067 43.9083 4.128 45.0176 4.128C46.1376 4.128 47.0976 4.49067 47.8976 5.216C48.7083 5.93067 49.1136 6.912 49.1136 8.16C49.1136 9.408 48.7083 10.3947 47.8976 11.12C47.0976 11.8347 46.1376 12.192 45.0176 12.192C43.9083 12.192 42.9483 11.8347 42.1376 11.12ZM47.0336 10.224C47.567 9.712 47.8336 9.024 47.8336 8.16C47.8336 7.296 47.567 6.61333 47.0336 6.112C46.5003 5.6 45.8283 5.344 45.0176 5.344C44.207 5.344 43.535 5.6 43.0016 6.112C42.4683 6.61333 42.2016 7.296 42.2016 8.16C42.2016 9.024 42.4683 9.712 43.0016 10.224C43.535 10.7253 44.207 10.976 45.0176 10.976C45.8283 10.976 46.5003 10.7253 47.0336 10.224ZM58.4536 8.384C58.4536 9.568 58.091 10.5013 57.3656 11.184C56.651 11.856 55.707 12.192 54.5336 12.192C53.339 12.192 52.3736 11.7973 51.6376 11.008C50.9123 10.2187 50.5496 9.11467 50.5496 7.696C50.5496 6.45867 50.763 5.392 51.1896 4.496C51.6163 3.6 52.1923 2.928 52.9176 2.48C53.4083 2.18133 53.915 1.94667 54.4376 1.776C54.971 1.59467 55.4083 1.48267 55.7496 1.44C56.1016 1.39733 56.4643 1.312 56.8376 1.184C57.211 1.04533 57.5203 0.853333 57.7656 0.608V1.952C57.467 2.16533 57.099 2.32533 56.6616 2.432C56.2243 2.528 55.739 2.64533 55.2056 2.784C54.6723 2.92267 54.1603 3.136 53.6696 3.424C53.1896 3.712 52.8163 4.07467 52.5496 4.512C52.283 4.94933 52.0483 5.472 51.8456 6.08C52.123 5.65333 52.5176 5.30667 53.0296 5.04C53.5416 4.77333 54.091 4.64 54.6776 4.64C55.7123 4.64 56.5976 4.98667 57.3336 5.68C58.0803 6.37333 58.4536 7.27467 58.4536 8.384ZM51.8296 8.416C51.8296 9.152 52.075 9.76533 52.5656 10.256C53.0563 10.736 53.7016 10.976 54.5016 10.976C55.323 10.976 55.9736 10.736 56.4536 10.256C56.9336 9.776 57.1736 9.16267 57.1736 8.416C57.1736 7.66933 56.9336 7.056 56.4536 6.576C55.9736 6.096 55.323 5.856 54.5016 5.856C53.7336 5.856 53.0936 6.11733 52.5816 6.64C52.0803 7.152 51.8296 7.744 51.8296 8.416ZM61.589 12H60.309V4.32H61.589V7.568H66.037V4.32H67.317V12H66.037V8.752H61.589V12ZM69.156 8.16C69.156 6.90133 69.54 5.91467 70.308 5.2C71.0867 4.48533 71.9773 4.128 72.98 4.128C73.9187 4.128 74.692 4.36267 75.3 4.832C75.9187 5.30133 76.324 5.88267 76.516 6.576C76.708 7.25867 76.7187 7.97333 76.548 8.72H70.436C70.5107 9.47733 70.8467 10.048 71.444 10.432C72.0413 10.816 72.7613 11.008 73.604 11.008C74.5427 11.008 75.3853 10.8 76.132 10.384V11.632C75.4173 12.0053 74.5107 12.192 73.412 12.192C72.196 12.192 71.1827 11.8453 70.372 11.152C69.5613 10.4587 69.156 9.46133 69.156 8.16ZM75.412 7.6C75.444 7.376 75.428 7.14133 75.364 6.896C75.3 6.65067 75.1827 6.40533 75.012 6.16C74.852 5.91467 74.6013 5.712 74.26 5.552C73.9187 5.392 73.5187 5.312 73.06 5.312C72.3667 5.312 71.764 5.51467 71.252 5.92C70.7507 6.32533 70.4787 6.88533 70.436 7.6H75.412ZM77.8904 8.16C77.8904 6.90133 78.2744 5.91467 79.0424 5.2C79.821 4.48533 80.7117 4.128 81.7144 4.128C82.653 4.128 83.4264 4.36267 84.0344 4.832C84.653 5.30133 85.0584 5.88267 85.2504 6.576C85.4424 7.25867 85.453 7.97333 85.2824 8.72H79.1704C79.245 9.47733 79.581 10.048 80.1784 10.432C80.7757 10.816 81.4957 11.008 82.3384 11.008C83.277 11.008 84.1197 10.8 84.8664 10.384V11.632C84.1517 12.0053 83.245 12.192 82.1464 12.192C80.9304 12.192 79.917 11.8453 79.1064 11.152C78.2957 10.4587 77.8904 9.46133 77.8904 8.16ZM84.1464 7.6C84.1784 7.376 84.1624 7.14133 84.0984 6.896C84.0344 6.65067 83.917 6.40533 83.7464 6.16C83.5864 5.91467 83.3357 5.712 82.9944 5.552C82.653 5.392 82.253 5.312 81.7944 5.312C81.101 5.312 80.4984 5.51467 79.9864 5.92C79.485 6.32533 79.213 6.88533 79.1704 7.6H84.1464Z" fill="#F0BF5F"/>
</svg>
