<svg width="240" height="20" viewBox="0 0 240 20" fill="none" xmlns="http://www.w3.org/2000/svg">
<path d="M2.54 15L3.78 11.98H10.8L12.04 15H14.44L8.54 0.999999H6.04L0.12 15H2.54ZM7.02 4C7.1 3.78 7.18 3.56 7.28 3.22C7.38 3.56 7.46 3.78 7.54 4L10 9.98H4.56L7.02 4ZM17.7908 6.9V5.4H15.8908V19.4H18.0308V13.76C18.6908 14.52 19.8108 15.26 21.4908 15.26C24.3708 15.26 26.2508 12.96 26.2508 10.2C26.2508 7.44 24.3708 5.14 21.4908 5.14C19.6908 5.14 18.5508 5.98 17.7908 6.9ZM24.0708 10.2C24.0708 12.08 22.8308 13.38 21.0908 13.38C19.6108 13.38 18.4908 12.42 18.0308 11.36V9.02C18.4908 7.98 19.6108 7.02 21.0908 7.02C22.8308 7.02 24.0708 8.32 24.0708 10.2ZM27.7322 10.2C27.7322 13.58 30.2322 15.26 33.1722 15.26C34.5122 15.26 35.7322 15.02 36.6122 14.6V12.76C35.7922 13.16 34.7322 13.44 33.5722 13.44C31.8122 13.44 30.1322 12.72 29.8922 11H37.1122C37.7322 8.22 36.4122 5.14 32.5922 5.14C30.3722 5.14 27.7322 6.72 27.7322 10.2ZM35.1922 9.4H29.8722C29.9522 7.78 31.2522 6.92 32.6922 6.92C34.7922 6.92 35.3122 8.56 35.1922 9.4ZM41.3902 15V11.14H46.1902V15H48.3302V5.4H46.1902V9.26H41.3902V5.4H39.2502V15H41.3902ZM52.168 17.58V15H59.888V17.58H61.908V13.24H60.488V5.4H52.988C53.028 8.74 52.628 11.18 51.468 13.24H50.148V17.58H52.168ZM54.988 7.16H58.328V13.24H53.708C54.508 11.54 54.908 9.74 54.988 7.16ZM72.0395 12.78V9.34C72.0395 6.44 70.3195 5.14 67.5995 5.14C66.0595 5.14 64.6795 5.52 63.9195 5.78V7.74C64.7795 7.36 65.9595 7 67.3795 7C69.0195 7 69.8995 7.84 69.8995 9.04V9.38C69.1395 9.22 68.2195 9.1 67.3995 9.1C65.3995 9.1 63.1195 9.86 63.1195 12.32C63.1195 14.3 64.7395 15.26 66.4795 15.26C67.9795 15.26 69.1595 14.78 70.0995 14.02C70.4395 14.8 71.1395 15.14 72.0195 15.14C72.4995 15.14 72.9795 15.06 73.3795 14.9V13.36C73.1795 13.42 72.9595 13.48 72.7395 13.48C72.3595 13.48 72.0395 13.32 72.0395 12.78ZM67.8195 10.6C68.4995 10.6 69.3195 10.72 69.8995 10.84V12.46C69.1395 13.22 68.1395 13.6 67.1195 13.6C66.1595 13.6 65.3195 13.12 65.3195 12.18C65.3195 10.98 66.5995 10.6 67.8195 10.6ZM89.3189 10.54C89.3189 7.64 87.2389 5.88 84.8189 5.88C83.3389 5.88 82.0989 6.6 81.4589 7.56C81.7389 6.46 82.2789 5.22 83.4989 4.52C85.5389 3.38 87.1189 3.84 88.4589 2.82V0.739999C87.0989 2.08 84.9989 1.34 82.2389 3.04C80.5189 4.12 79.2789 6.24 79.2789 9.56C79.2789 13.42 81.4589 15.26 84.3189 15.26C87.2189 15.26 89.3189 13.58 89.3189 10.54ZM81.4389 10.58C81.4389 9.24 82.4389 7.74 84.2789 7.74C86.1989 7.74 87.1389 9.1 87.1389 10.58C87.1389 12.06 86.1989 13.42 84.2789 13.42C82.4189 13.42 81.4389 12.06 81.4389 10.58ZM99.5981 12.78V9.34C99.5981 6.44 97.8781 5.14 95.1581 5.14C93.6181 5.14 92.2381 5.52 91.4781 5.78V7.74C92.3381 7.36 93.5181 7 94.9381 7C96.5781 7 97.4581 7.84 97.4581 9.04V9.38C96.6981 9.22 95.7781 9.1 94.9581 9.1C92.9581 9.1 90.6781 9.86 90.6781 12.32C90.6781 14.3 92.2981 15.26 94.0381 15.26C95.5381 15.26 96.7181 14.78 97.6581 14.02C97.9981 14.8 98.6981 15.14 99.5781 15.14C100.058 15.14 100.538 15.06 100.938 14.9V13.36C100.738 13.42 100.518 13.48 100.298 13.48C99.9181 13.48 99.5981 13.32 99.5981 12.78ZM95.3781 10.6C96.0581 10.6 96.8781 10.72 97.4581 10.84V12.46C96.6981 13.22 95.6981 13.6 94.6781 13.6C93.7181 13.6 92.8781 13.12 92.8781 12.18C92.8781 10.98 94.1581 10.6 95.3781 10.6ZM104.691 15V11.14H109.491V15H111.631V5.4H109.491V9.26H104.691V5.4H102.551V15H104.691ZM116.449 15V11.02H117.989L121.149 15H123.609L119.749 10.16L123.229 5.4H120.789L118.029 9.2H116.449V5.4H114.309V15H116.449ZM123.924 10.2C123.924 13.58 126.424 15.26 129.364 15.26C130.704 15.26 131.924 15.02 132.804 14.6V12.76C131.984 13.16 130.924 13.44 129.764 13.44C128.004 13.44 126.324 12.72 126.084 11H133.304C133.924 8.22 132.604 5.14 128.784 5.14C126.564 5.14 123.924 6.72 123.924 10.2ZM131.384 9.4H126.064C126.144 7.78 127.444 6.92 128.884 6.92C130.984 6.92 131.504 8.56 131.384 9.4ZM139.745 15V7.28H143.045V5.4H134.285V7.28H137.605V15H139.745ZM146.859 15V11.14H151.659V15H153.799V5.4H151.659V9.26H146.859V5.4H144.719V15H146.859ZM161.237 15C163.657 15 165.037 13.6 165.037 11.8C165.037 9.98 163.657 8.6 161.237 8.6H158.617V5.4H156.477V15H161.237ZM158.617 10.28H160.817C162.077 10.28 162.857 10.8 162.857 11.8C162.857 12.78 162.077 13.3 160.817 13.3H158.617V10.28ZM168.897 15V5.4H166.757V15H168.897ZM177.634 5.4L175.334 8.64L173.034 5.4H170.594L174.094 10.1L170.394 15H172.834L175.334 11.6L177.834 15H180.274L176.574 10.1L180.074 5.4H177.634ZM194.016 12.38C194.016 11.18 193.216 10.38 192.116 10.08C193.116 9.82 193.816 9.08 193.816 7.94C193.816 6.38 192.576 5.12 189.616 5.12C188.296 5.12 187.016 5.44 186.096 5.88V7.72C186.916 7.28 188.236 6.94 189.356 6.94C190.736 6.94 191.656 7.36 191.656 8.22C191.656 9.02 190.876 9.3 189.856 9.3H187.896V10.94H189.856C190.816 10.94 191.856 11.1 191.856 12.12C191.856 13.18 190.656 13.44 189.236 13.44C188.076 13.44 186.696 13.08 185.916 12.64V14.48C186.796 14.94 188.076 15.26 189.516 15.26C192.476 15.26 194.016 14.06 194.016 12.38ZM204.344 12.78V9.34C204.344 6.44 202.624 5.14 199.904 5.14C198.364 5.14 196.984 5.52 196.224 5.78V7.74C197.084 7.36 198.264 7 199.684 7C201.324 7 202.204 7.84 202.204 9.04V9.38C201.444 9.22 200.524 9.1 199.704 9.1C197.704 9.1 195.424 9.86 195.424 12.32C195.424 14.3 197.044 15.26 198.784 15.26C200.284 15.26 201.464 14.78 202.404 14.02C202.744 14.8 203.444 15.14 204.324 15.14C204.804 15.14 205.284 15.06 205.684 14.9V13.36C205.484 13.42 205.264 13.48 205.044 13.48C204.664 13.48 204.344 13.32 204.344 12.78ZM200.124 10.6C200.804 10.6 201.624 10.72 202.204 10.84V12.46C201.444 13.22 200.444 13.6 199.424 13.6C198.464 13.6 197.624 13.12 197.624 12.18C197.624 10.98 198.904 10.6 200.124 10.6ZM211.117 7.22H214.357V15H216.497V5.4H209.097C208.917 10.16 208.477 13.36 206.857 13.36C206.657 13.36 206.457 13.32 206.237 13.24V14.92C206.717 15.1 207.157 15.18 207.557 15.18C210.117 15.18 210.837 11.86 211.117 7.22ZM218.572 10.2C218.572 13.52 221.092 15.26 223.772 15.26C226.472 15.26 228.972 13.52 228.972 10.2C228.972 6.88 226.472 5.14 223.772 5.14C221.092 5.14 218.572 6.88 218.572 10.2ZM226.792 10.2C226.792 12.08 225.552 13.3 223.772 13.3C221.972 13.3 220.732 12.08 220.732 10.2C220.732 8.32 221.972 7.1 223.772 7.1C225.552 7.1 226.792 8.32 226.792 10.2ZM236.687 15C238.907 15 239.847 13.84 239.847 12.36C239.847 11.18 239.107 10.42 238.207 10.14C239.027 9.78 239.567 9.02 239.567 7.96C239.567 6.46 238.467 5.4 236.527 5.4H231.047V15H236.687ZM233.187 10.92H236.207C236.947 10.92 237.687 11.18 237.687 12.16C237.687 13.08 237.047 13.38 236.167 13.38H233.187V10.92ZM233.187 7.02H236.047C236.707 7.02 237.407 7.3 237.407 8.24C237.407 9.1 236.807 9.4 236.047 9.4H233.187V7.02Z" fill="#CC9933"/>
</svg>
