<svg width="353" height="20" viewBox="0 0 353 20" fill="none" xmlns="http://www.w3.org/2000/svg">
<path d="M0.84 8.12C0.82 12.9 4.66 15.26 8.28 15.26C9.76 15.26 11.16 14.92 12.34 14.34V12.08C11.42 12.78 10.12 13.16 8.68 13.16C6 13.16 3.16 11.56 3.16 8.12C3.18 4.42 5.96 2.84 8.64 2.84C9.96 2.84 11.26 3.2 12.24 3.88V1.66C11.04 1.06 9.66 0.739999 8.26 0.739999C4.58 0.739999 0.84 3.14 0.84 8.12ZM22.7036 12.78V9.34C22.7036 6.44 20.9836 5.14 18.2636 5.14C16.7236 5.14 15.3436 5.52 14.5836 5.78V7.74C15.4436 7.36 16.6236 7 18.0436 7C19.6836 7 20.5636 7.84 20.5636 9.04V9.38C19.8036 9.22 18.8836 9.1 18.0636 9.1C16.0636 9.1 13.7836 9.86 13.7836 12.32C13.7836 14.3 15.4036 15.26 17.1436 15.26C18.6436 15.26 19.8236 14.78 20.7636 14.02C21.1036 14.8 21.8036 15.14 22.6836 15.14C23.1636 15.14 23.6436 15.06 24.0436 14.9V13.36C23.8436 13.42 23.6236 13.48 23.4036 13.48C23.0236 13.48 22.7036 13.32 22.7036 12.78ZM18.4836 10.6C19.1636 10.6 19.9836 10.72 20.5636 10.84V12.46C19.8036 13.22 18.8036 13.6 17.7836 13.6C16.8236 13.6 15.9836 13.12 15.9836 12.18C15.9836 10.98 17.2636 10.6 18.4836 10.6ZM29.41 12.64L26.17 5.4H23.89L28.45 15.08L28.25 15.56C27.69 17.06 26.91 17.8 25.87 17.8C25.55 17.8 25.21 17.76 24.89 17.66V19.48C25.31 19.58 25.73 19.64 26.15 19.64C27.61 19.64 28.97 18.8 30.01 16.3L34.51 5.4H32.27L29.41 12.64ZM38.2456 15V11.14H43.0456V15H45.1856V5.4H43.0456V9.26H38.2456V5.4H36.1056V15H38.2456ZM52.6234 15C55.0434 15 56.4234 13.6 56.4234 11.8C56.4234 9.98 55.0434 8.6 52.6234 8.6H50.0034V5.4H47.8634V15H52.6234ZM50.0034 10.28H52.2034C53.4634 10.28 54.2434 10.8 54.2434 11.8C54.2434 12.78 53.4634 13.3 52.2034 13.3H50.0034V10.28ZM60.2834 15V5.4H58.1434V15H60.2834ZM63.5811 17.96L65.2811 13H63.0211L61.8411 17.96H63.5811ZM82.0338 10.54C82.0338 7.64 79.9538 5.88 77.5338 5.88C76.0538 5.88 74.8138 6.6 74.1738 7.56C74.4538 6.46 74.9938 5.22 76.2138 4.52C78.2538 3.38 79.8338 3.84 81.1738 2.82V0.739999C79.8138 2.08 77.7138 1.34 74.9538 3.04C73.2338 4.12 71.9938 6.24 71.9938 9.56C71.9938 13.42 74.1738 15.26 77.0338 15.26C79.9338 15.26 82.0338 13.58 82.0338 10.54ZM74.1538 10.58C74.1538 9.24 75.1538 7.74 76.9938 7.74C78.9138 7.74 79.8538 9.1 79.8538 10.58C79.8538 12.06 78.9138 13.42 76.9938 13.42C75.1338 13.42 74.1538 12.06 74.1538 10.58ZM92.313 12.78V9.34C92.313 6.44 90.593 5.14 87.873 5.14C86.333 5.14 84.953 5.52 84.193 5.78V7.74C85.053 7.36 86.233 7 87.653 7C89.293 7 90.173 7.84 90.173 9.04V9.38C89.413 9.22 88.493 9.1 87.673 9.1C85.673 9.1 83.393 9.86 83.393 12.32C83.393 14.3 85.013 15.26 86.753 15.26C88.253 15.26 89.433 14.78 90.373 14.02C90.713 14.8 91.413 15.14 92.293 15.14C92.773 15.14 93.253 15.06 93.653 14.9V13.36C93.453 13.42 93.233 13.48 93.013 13.48C92.633 13.48 92.313 13.32 92.313 12.78ZM88.093 10.6C88.773 10.6 89.593 10.72 90.173 10.84V12.46C89.413 13.22 88.413 13.6 87.393 13.6C86.433 13.6 85.593 13.12 85.593 12.18C85.593 10.98 86.873 10.6 88.093 10.6ZM94.6658 10.28C94.6658 13.7 97.2858 15.26 99.8458 15.26C101.066 15.26 102.106 15.04 103.026 14.6V12.62C102.266 13.06 101.246 13.36 100.226 13.36C98.5058 13.36 96.8458 12.38 96.8458 10.2C96.8458 7.94 98.5658 7.04 100.266 7.04C101.246 7.04 102.226 7.34 102.926 7.84V5.88C102.086 5.38 101.046 5.14 99.9658 5.14C97.4058 5.14 94.6658 6.7 94.6658 10.28ZM104.412 10.28C104.412 13.7 107.032 15.26 109.592 15.26C110.812 15.26 111.852 15.04 112.772 14.6V12.62C112.012 13.06 110.992 13.36 109.972 13.36C108.252 13.36 106.592 12.38 106.592 10.2C106.592 7.94 108.312 7.04 110.012 7.04C110.992 7.04 111.972 7.34 112.672 7.84V5.88C111.832 5.38 110.792 5.14 109.712 5.14C107.152 5.14 104.412 6.7 104.412 10.28ZM114.158 10.2C114.158 13.58 116.658 15.26 119.598 15.26C120.938 15.26 122.158 15.02 123.038 14.6V12.76C122.218 13.16 121.158 13.44 119.998 13.44C118.238 13.44 116.558 12.72 116.318 11H123.538C124.158 8.22 122.838 5.14 119.018 5.14C116.798 5.14 114.158 6.72 114.158 10.2ZM121.618 9.4H116.298C116.378 7.78 117.678 6.92 119.118 6.92C121.218 6.92 121.738 8.56 121.618 9.4ZM133.156 3.24V1.5C132.136 2.14 131.236 2.34 130.236 2.34C129.236 2.34 128.336 2.14 127.316 1.5V3.24C128.196 3.84 129.156 4.06 130.236 4.06C131.316 4.06 132.276 3.84 133.156 3.24ZM127.516 15L132.656 8.72V15H134.796V5.4H132.956L127.816 11.68V5.4H125.676V15H127.516ZM139.613 15V11.14H144.413V15H146.553V5.4H144.413V9.26H139.613V5.4H137.473V15H139.613ZM153.991 15C156.411 15 157.791 13.6 157.791 11.8C157.791 9.98 156.411 8.6 153.991 8.6H151.371V5.4H149.231V15H153.991ZM151.371 10.28H153.571C154.831 10.28 155.611 10.8 155.611 11.8C155.611 12.78 154.831 13.3 153.571 13.3H151.371V10.28ZM161.651 15V5.4H159.511V15H161.651ZM164.948 17.96L166.648 13H164.388L163.208 17.96H164.948ZM183.401 10.54C183.401 7.64 181.321 5.88 178.901 5.88C177.421 5.88 176.181 6.6 175.541 7.56C175.821 6.46 176.361 5.22 177.581 4.52C179.621 3.38 181.201 3.84 182.541 2.82V0.739999C181.181 2.08 179.081 1.34 176.321 3.04C174.601 4.12 173.361 6.24 173.361 9.56C173.361 13.42 175.541 15.26 178.401 15.26C181.301 15.26 183.401 13.58 183.401 10.54ZM175.521 10.58C175.521 9.24 176.521 7.74 178.361 7.74C180.281 7.74 181.221 9.1 181.221 10.58C181.221 12.06 180.281 13.42 178.361 13.42C176.501 13.42 175.521 12.06 175.521 10.58ZM193.68 12.78V9.34C193.68 6.44 191.96 5.14 189.24 5.14C187.7 5.14 186.32 5.52 185.56 5.78V7.74C186.42 7.36 187.6 7 189.02 7C190.66 7 191.54 7.84 191.54 9.04V9.38C190.78 9.22 189.86 9.1 189.04 9.1C187.04 9.1 184.76 9.86 184.76 12.32C184.76 14.3 186.38 15.26 188.12 15.26C189.62 15.26 190.8 14.78 191.74 14.02C192.08 14.8 192.78 15.14 193.66 15.14C194.14 15.14 194.62 15.06 195.02 14.9V13.36C194.82 13.42 194.6 13.48 194.38 13.48C194 13.48 193.68 13.32 193.68 12.78ZM189.46 10.6C190.14 10.6 190.96 10.72 191.54 10.84V12.46C190.78 13.22 189.78 13.6 188.76 13.6C187.8 13.6 186.96 13.12 186.96 12.18C186.96 10.98 188.24 10.6 189.46 10.6ZM198.773 15V11.14H203.573V15H205.713V5.4H203.573V9.26H198.773V5.4H196.633V15H198.773ZM210.231 15L215.371 8.72V15H217.511V5.4H215.671L210.531 11.68V5.4H208.391V15H210.231ZM220.808 17.96L222.508 13H220.248L219.068 17.96H220.808ZM236.7 19.4V15.26C239.88 15.16 242.28 13.24 242.28 10.2C242.28 7.16 239.88 5.24 236.7 5.14V0.999999H234.62V5.14C231.44 5.24 229.04 7.16 229.04 10.2C229.04 13.24 231.44 15.16 234.62 15.26V19.4H236.7ZM231.18 10.2C231.18 8.34 232.46 7.06 234.62 6.96V13.44C232.46 13.34 231.18 12.06 231.18 10.2ZM236.7 6.96C238.86 7.06 240.14 8.34 240.14 10.2C240.14 12.06 238.86 13.34 236.7 13.44V6.96ZM246.188 15L251.328 8.72V15H253.468V5.4H251.628L246.488 11.68V5.4H244.348V15H246.188ZM260.605 15V7.28H263.905V5.4H255.145V7.28H258.465V15H260.605ZM267.718 15V11.14H272.518V15H274.658V5.4H272.518V9.26H267.718V5.4H265.578V15H267.718ZM276.736 10.2C276.736 13.58 279.236 15.26 282.176 15.26C283.516 15.26 284.736 15.02 285.616 14.6V12.76C284.796 13.16 283.736 13.44 282.576 13.44C280.816 13.44 279.136 12.72 278.896 11H286.116C286.736 8.22 285.416 5.14 281.596 5.14C279.376 5.14 276.736 6.72 276.736 10.2ZM284.196 9.4H278.876C278.956 7.78 280.256 6.92 281.696 6.92C283.796 6.92 284.316 8.56 284.196 9.4ZM287.654 10.28C287.654 13.7 290.274 15.26 292.834 15.26C294.054 15.26 295.094 15.04 296.014 14.6V12.62C295.254 13.06 294.234 13.36 293.214 13.36C291.494 13.36 289.834 12.38 289.834 10.2C289.834 7.94 291.554 7.04 293.254 7.04C294.234 7.04 295.214 7.34 295.914 7.84V5.88C295.074 5.38 294.034 5.14 292.954 5.14C290.394 5.14 287.654 6.7 287.654 10.28ZM297.703 9.12V11.04H304.983V9.12H297.703ZM314.739 12.38C314.739 11.18 313.939 10.38 312.839 10.08C313.839 9.82 314.539 9.08 314.539 7.94C314.539 6.38 313.299 5.12 310.339 5.12C309.019 5.12 307.739 5.44 306.819 5.88V7.72C307.639 7.28 308.959 6.94 310.079 6.94C311.459 6.94 312.379 7.36 312.379 8.22C312.379 9.02 311.599 9.3 310.579 9.3H308.619V10.94H310.579C311.539 10.94 312.579 11.1 312.579 12.12C312.579 13.18 311.379 13.44 309.959 13.44C308.799 13.44 307.419 13.08 306.639 12.64V14.48C307.519 14.94 308.799 15.26 310.239 15.26C313.199 15.26 314.739 14.06 314.739 12.38ZM325.067 12.78V9.34C325.067 6.44 323.347 5.14 320.627 5.14C319.087 5.14 317.707 5.52 316.947 5.78V7.74C317.807 7.36 318.987 7 320.407 7C322.047 7 322.927 7.84 322.927 9.04V9.38C322.167 9.22 321.247 9.1 320.427 9.1C318.427 9.1 316.147 9.86 316.147 12.32C316.147 14.3 317.767 15.26 319.507 15.26C321.007 15.26 322.187 14.78 323.127 14.02C323.467 14.8 324.167 15.14 325.047 15.14C325.527 15.14 326.007 15.06 326.407 14.9V13.36C326.207 13.42 325.987 13.48 325.767 13.48C325.387 13.48 325.067 13.32 325.067 12.78ZM320.847 10.6C321.527 10.6 322.347 10.72 322.927 10.84V12.46C322.167 13.22 321.167 13.6 320.147 13.6C319.187 13.6 318.347 13.12 318.347 12.18C318.347 10.98 319.627 10.6 320.847 10.6ZM331.84 7.22H335.08V15H337.22V5.4H329.82C329.64 10.16 329.2 13.36 327.58 13.36C327.38 13.36 327.18 13.32 326.96 13.24V14.92C327.44 15.1 327.88 15.18 328.28 15.18C330.84 15.18 331.56 11.86 331.84 7.22ZM344.655 15C347.075 15 348.455 13.6 348.455 11.8C348.455 9.98 347.075 8.6 344.655 8.6H342.035V5.4H339.895V15H344.655ZM342.035 10.28H344.235C345.495 10.28 346.275 10.8 346.275 11.8C346.275 12.78 345.495 13.3 344.235 13.3H342.035V10.28ZM352.315 15V5.4H350.175V15H352.315Z" fill="#CC9933"/>
</svg>
