<svg width="360" height="20" viewBox="0 0 360 20" fill="none" xmlns="http://www.w3.org/2000/svg">
<path d="M0.8 8C0.8 11.7 3.22 15.26 8.16 15.26C13.08 15.26 15.52 11.7 15.52 8C15.52 4.3 13.08 0.739999 8.16 0.739999C3.22 0.739999 0.8 4.3 0.8 8ZM13.2 8C13.2 10.68 11.56 13.12 8.16 13.12C4.78 13.12 3.12 10.68 3.12 8C3.12 5.32 4.78 2.88 8.16 2.88C11.56 2.88 13.2 5.32 13.2 8ZM23.5133 5.4L21.2133 8.64L18.9133 5.4H16.4733L19.9733 10.1L16.2733 15H18.7133L21.2133 11.6L23.7133 15H26.1533L22.4533 10.1L25.9533 5.4H23.5133ZM29.5486 6.9V5.4H27.6486V19.4H29.7886V13.76C30.4486 14.52 31.5686 15.26 33.2486 15.26C36.1286 15.26 38.0086 12.96 38.0086 10.2C38.0086 7.44 36.1286 5.14 33.2486 5.14C31.4486 5.14 30.3086 5.98 29.5486 6.9ZM35.8286 10.2C35.8286 12.08 34.5886 13.38 32.8486 13.38C31.3686 13.38 30.2486 12.42 29.7886 11.36V9.02C30.2486 7.98 31.3686 7.02 32.8486 7.02C34.5886 7.02 35.8286 8.32 35.8286 10.2ZM48.27 12.78V9.34C48.27 6.44 46.55 5.14 43.83 5.14C42.29 5.14 40.91 5.52 40.15 5.78V7.74C41.01 7.36 42.19 7 43.61 7C45.25 7 46.13 7.84 46.13 9.04V9.38C45.37 9.22 44.45 9.1 43.63 9.1C41.63 9.1 39.35 9.86 39.35 12.32C39.35 14.3 40.97 15.26 42.71 15.26C44.21 15.26 45.39 14.78 46.33 14.02C46.67 14.8 47.37 15.14 48.25 15.14C48.73 15.14 49.21 15.06 49.61 14.9V13.36C49.41 13.42 49.19 13.48 48.97 13.48C48.59 13.48 48.27 13.32 48.27 12.78ZM44.05 10.6C44.73 10.6 45.55 10.72 46.13 10.84V12.46C45.37 13.22 44.37 13.6 43.35 13.6C42.39 13.6 41.55 13.12 41.55 12.18C41.55 10.98 42.83 10.6 44.05 10.6ZM53.3628 15V11.14H58.1628V15H60.3028V5.4H58.1628V9.26H53.3628V5.4H51.2228V15H53.3628ZM64.5806 15L66.9606 11.86H69.1406V15H71.2806V5.4H66.3206C63.9206 5.4 62.6206 6.9 62.6206 8.64C62.6206 9.96 63.3606 11.14 64.7606 11.62L62.1206 15H64.5806ZM64.8006 8.66C64.8006 7.72 65.5006 7.18 66.6806 7.18H69.1406V10.14H66.6806C65.5006 10.14 64.8006 9.6 64.8006 8.66ZM73.3572 10.2C73.3572 13.58 75.8572 15.26 78.7972 15.26C80.1372 15.26 81.3572 15.02 82.2372 14.6V12.76C81.4172 13.16 80.3572 13.44 79.1972 13.44C77.4372 13.44 75.7572 12.72 75.5172 11H82.7372C83.3572 8.22 82.0372 5.14 78.2172 5.14C75.9972 5.14 73.3572 6.72 73.3572 10.2ZM80.8172 9.4H75.4972C75.5772 7.78 76.8772 6.92 78.3172 6.92C80.4172 6.92 80.9372 8.56 80.8172 9.4ZM86.9352 15V8.5L89.6552 12.7H90.9352L93.6752 8.5V15H95.7352V5.4H93.5752L90.2952 10.46L87.0352 5.4H84.8752V15H86.9352ZM103.17 15C105.59 15 106.97 13.6 106.97 11.8C106.97 9.98 105.59 8.6 103.17 8.6H100.55V5.4H98.4103V15H103.17ZM100.55 10.28H102.75C104.01 10.28 104.79 10.8 104.79 11.8C104.79 12.78 104.01 13.3 102.75 13.3H100.55V10.28ZM110.83 15V5.4H108.69V15H110.83ZM112.908 10.2C112.908 13.58 115.408 15.26 118.348 15.26C119.688 15.26 120.908 15.02 121.788 14.6V12.76C120.968 13.16 119.908 13.44 118.748 13.44C116.988 13.44 115.308 12.72 115.068 11H122.288C122.908 8.22 121.588 5.14 117.768 5.14C115.548 5.14 112.908 6.72 112.908 10.2ZM120.368 9.4H115.048C115.128 7.78 116.428 6.92 117.868 6.92C119.968 6.92 120.488 8.56 120.368 9.4ZM137.333 12.78V9.34C137.333 6.44 135.613 5.14 132.893 5.14C131.353 5.14 129.973 5.52 129.213 5.78V7.74C130.073 7.36 131.253 7 132.673 7C134.313 7 135.193 7.84 135.193 9.04V9.38C134.433 9.22 133.513 9.1 132.693 9.1C130.693 9.1 128.413 9.86 128.413 12.32C128.413 14.3 130.033 15.26 131.773 15.26C133.273 15.26 134.453 14.78 135.393 14.02C135.733 14.8 136.433 15.14 137.313 15.14C137.793 15.14 138.273 15.06 138.673 14.9V13.36C138.473 13.42 138.253 13.48 138.033 13.48C137.653 13.48 137.333 13.32 137.333 12.78ZM133.113 10.6C133.793 10.6 134.613 10.72 135.193 10.84V12.46C134.433 13.22 133.433 13.6 132.413 13.6C131.453 13.6 130.613 13.12 130.613 12.18C130.613 10.98 131.893 10.6 133.113 10.6ZM145.925 15C148.145 15 149.085 13.84 149.085 12.36C149.085 11.18 148.345 10.42 147.445 10.14C148.265 9.78 148.805 9.02 148.805 7.96C148.805 6.46 147.705 5.4 145.765 5.4H140.285V15H145.925ZM142.425 10.92H145.445C146.185 10.92 146.925 11.18 146.925 12.16C146.925 13.08 146.285 13.38 145.405 13.38H142.425V10.92ZM142.425 7.02H145.285C145.945 7.02 146.645 7.3 146.645 8.24C146.645 9.1 146.045 9.4 145.285 9.4H142.425V7.02ZM155.566 15V7.28H158.866V5.4H150.106V7.28H153.426V15H155.566ZM159.685 10.2C159.685 13.52 162.205 15.26 164.885 15.26C167.585 15.26 170.085 13.52 170.085 10.2C170.085 6.88 167.585 5.14 164.885 5.14C162.205 5.14 159.685 6.88 159.685 10.2ZM167.905 10.2C167.905 12.08 166.665 13.3 164.885 13.3C163.085 13.3 161.845 12.08 161.845 10.2C161.845 8.32 163.085 7.1 164.885 7.1C166.665 7.1 167.905 8.32 167.905 10.2ZM174.22 15V8.5L176.94 12.7H178.22L180.96 8.5V15H183.02V5.4H180.86L177.58 10.46L174.32 5.4H172.16V15H174.22ZM185.095 10.2C185.095 13.52 187.615 15.26 190.295 15.26C192.995 15.26 195.495 13.52 195.495 10.2C195.495 6.88 192.995 5.14 190.295 5.14C187.615 5.14 185.095 6.88 185.095 10.2ZM193.315 10.2C193.315 12.08 192.075 13.3 190.295 13.3C188.495 13.3 187.255 12.08 187.255 10.2C187.255 8.32 188.495 7.1 190.295 7.1C192.075 7.1 193.315 8.32 193.315 10.2ZM207.17 10.54C207.17 7.64 205.09 5.88 202.67 5.88C201.19 5.88 199.95 6.6 199.31 7.56C199.59 6.46 200.13 5.22 201.35 4.52C203.39 3.38 204.97 3.84 206.31 2.82V0.739999C204.95 2.08 202.85 1.34 200.09 3.04C198.37 4.12 197.13 6.24 197.13 9.56C197.13 13.42 199.31 15.26 202.17 15.26C205.07 15.26 207.17 13.58 207.17 10.54ZM199.29 10.58C199.29 9.24 200.29 7.74 202.13 7.74C204.05 7.74 204.99 9.1 204.99 10.58C204.99 12.06 204.05 13.42 202.13 13.42C200.27 13.42 199.29 12.06 199.29 10.58ZM211.11 15L216.25 8.72V15H218.39V5.4H216.55L211.41 11.68V5.4H209.27V15H211.11ZM224.887 7.22H228.127V15H230.267V5.4H222.867C222.687 10.16 222.247 13.36 220.627 13.36C220.427 13.36 220.227 13.32 220.007 13.24V14.92C220.487 15.1 220.927 15.18 221.327 15.18C223.887 15.18 224.607 11.86 224.887 7.22ZM237.702 15C240.122 15 241.502 13.6 241.502 11.8C241.502 9.98 240.122 8.6 237.702 8.6H235.082V5.4H232.942V15H237.702ZM235.082 10.28H237.282C238.542 10.28 239.322 10.8 239.322 11.8C239.322 12.78 238.542 13.3 237.282 13.3H235.082V10.28ZM245.511 15V11.14H250.311V15H252.451V5.4H250.311V9.26H245.511V5.4H243.371V15H245.511ZM259.889 15C262.309 15 263.689 13.6 263.689 11.8C263.689 9.98 262.309 8.6 259.889 8.6H257.269V5.4H255.129V15H259.889ZM257.269 10.28H259.469C260.729 10.28 261.509 10.8 261.509 11.8C261.509 12.78 260.729 13.3 259.469 13.3H257.269V10.28ZM267.549 15V5.4H265.409V15H267.549ZM269.627 10.2C269.627 13.58 272.127 15.26 275.067 15.26C276.407 15.26 277.627 15.02 278.507 14.6V12.76C277.687 13.16 276.627 13.44 275.467 13.44C273.707 13.44 272.027 12.72 271.787 11H279.007C279.627 8.22 278.307 5.14 274.487 5.14C272.267 5.14 269.627 6.72 269.627 10.2ZM277.087 9.4H271.767C271.847 7.78 273.147 6.92 274.587 6.92C276.687 6.92 277.207 8.56 277.087 9.4ZM285.271 10.28C285.271 13.7 287.891 15.26 290.451 15.26C291.671 15.26 292.711 15.04 293.631 14.6V12.62C292.871 13.06 291.851 13.36 290.831 13.36C289.111 13.36 287.451 12.38 287.451 10.2C287.451 7.94 289.171 7.04 290.871 7.04C291.851 7.04 292.831 7.34 293.531 7.84V5.88C292.691 5.38 291.651 5.14 290.571 5.14C288.011 5.14 285.271 6.7 285.271 10.28ZM300.234 15V7.28H303.534V5.4H294.774V7.28H298.094V15H300.234ZM304.353 10.2C304.353 13.52 306.873 15.26 309.553 15.26C312.253 15.26 314.753 13.52 314.753 10.2C314.753 6.88 312.253 5.14 309.553 5.14C306.873 5.14 304.353 6.88 304.353 10.2ZM312.573 10.2C312.573 12.08 311.333 13.3 309.553 13.3C307.753 13.3 306.513 12.08 306.513 10.2C306.513 8.32 307.753 7.1 309.553 7.1C311.333 7.1 312.573 8.32 312.573 10.2ZM318.35 15L320.73 11.86H322.91V15H325.05V5.4H320.09C317.69 5.4 316.39 6.9 316.39 8.64C316.39 9.96 317.13 11.14 318.53 11.62L315.89 15H318.35ZM318.57 8.66C318.57 7.72 319.27 7.18 320.45 7.18H322.91V10.14H320.45C319.27 10.14 318.57 9.6 318.57 8.66ZM329.867 15V11.14H334.667V15H336.807V5.4H334.667V9.26H329.867V5.4H327.727V15H329.867ZM341.625 15V11.02H343.165L346.325 15H348.785L344.925 10.16L348.405 5.4H345.965L343.205 9.2H341.625V5.4H339.485V15H341.625ZM352.028 15L357.168 8.72V15H359.308V5.4H357.468L352.328 11.68V5.4H350.188V15H352.028Z" fill="#CC9933"/>
</svg>
